<?xml version="1.0" encoding="utf-8"?>
<!-- Generator: Adobe Illustrator 26.0.1, SVG Export Plug-In . SVG Version: 6.00 Build 0)  -->
<svg version="1.1" id="Capa_1" xmlns="http://www.w3.org/2000/svg" xmlns:xlink="http://www.w3.org/1999/xlink" x="0px" y="0px"
	 viewBox="0 0 255.1 255.1" style="enable-background:new 0 0 255.1 255.1;" xml:space="preserve">
<style type="text/css">
	.st0{fill:#4CD1C0;}
</style>
<path class="st0" d="M127.6,6C60.4,6,6,60.4,6,127.6s54.4,121.6,121.6,121.6s121.6-54.4,121.6-121.6S194.8,6,127.6,6z M123.4,180.2
	L80,203.1v-46l0,0l0,0l42.5-21.1l0.6-0.3l0.3-0.2V180.2z M80,148.7l-43.4-21.1L80,106.5l43.4,21.1L80,148.7z M123.4,119.8l-0.3-0.2
	l-0.6-0.3L80,98.1l0,0l0,0v-46L123.4,75V119.8z M131.8,75l43.4-22.9v46l0,0l0,0l-42.5,21.1l-0.6,0.3l-0.3,0.2V75z M175.2,203.1
	l-43.4-22.9v-44.8l0.3,0.2l0.6,0.3l42.5,21.1l0,0l0,0V203.1z M175.2,148.7l-43.4-21.1l43.4-21.1l43.4,21.1L175.2,148.7z"/>
</svg>
