<?xml version="1.0" encoding="utf-8"?>
<!-- Generator: Adobe Illustrator 26.0.1, SVG Export Plug-In . SVG Version: 6.00 Build 0)  -->
<svg version="1.1" id="Capa_1" xmlns="http://www.w3.org/2000/svg" xmlns:xlink="http://www.w3.org/1999/xlink" x="0px" y="0px"
	 viewBox="0 0 255.1 255.1" style="enable-background:new 0 0 255.1 255.1;" xml:space="preserve">
<style type="text/css">
	.st0{fill:#83C300;}
</style>
<path class="st0" d="M127.6,6C60.4,6,6,60.4,6,127.6s54.4,121.6,121.6,121.6s121.6-54.4,121.6-121.6S194.8,6,127.6,6z M115.2,180.2
	c-3.2,7.5-7.9,14.2-13.1,20.4c-1.3,1.6-1.4,1.6-3.2,0.7c-16-7.3-27.8-19-35.2-35c-4.9-10.6-7-21.8-6.2-33.4
	c1.2-17.7,8.1-32.8,20.5-45.4c0.1-0.1,0.2-0.2,0.4-0.4c1.4-1.4,1.5-1.4,2.8,0.1c3.9,4.3,8.2,8.2,13.1,11.4
	c5.9,3.9,12.3,6.8,19.2,8.3c1.8,0.4,2.7,1.2,3.3,3c2.3,7.2,4.6,14.5,5.4,22.1c0.4,3.6,0.5,7.1,0.7,9.2
	C122.3,155.7,120.3,168.3,115.2,180.2z M91.7,79.3c-1.4-1.5-1.4-1.6,0.4-2.6c3.7-2.2,7.5-4,11.6-5.4c0.8-0.3,1.6-0.5,2.4-0.8
	c1.2-0.5,1.3-0.6,0.5-1.8c-0.3-0.4-0.6-0.8-0.9-1.2c-3.3-4.4-6.5-8.8-9.8-13.2c-0.5-0.7-1-1.4-1.4-2.1c-1.1-2.1-0.4-4.6,1.5-5.9
	c1.9-1.3,4.1-1.1,5.8,0.6c0.7,0.7,1.2,1.4,1.8,2.2c4.2,5.7,8.5,11.3,12.6,17.1c1,1.4,2,1.8,3.6,1.6c5.2-0.7,10.4-0.7,15.6,0
	c1.7,0.2,2.7-0.3,3.6-1.6c4.3-5.9,8.6-11.7,12.9-17.5c0.5-0.6,0.9-1.3,1.5-1.8c1.8-1.7,4.2-1.8,6.1-0.3c1.8,1.4,2.3,3.7,1.3,5.7
	c-0.3,0.7-0.8,1.3-1.3,1.9c-3.2,4.4-6.5,8.8-9.8,13.2c-0.3,0.4-0.6,0.8-0.9,1.2c-1,1.5-1,1.5,0.6,2.1c0.7,0.3,1.5,0.5,2.2,0.8
	c4,1.5,7.9,3.3,11.6,5.4c1.8,1.1,1.8,1.1,0.5,2.6c-9.7,10.6-21.7,16.3-35.9,16.2C113.1,95.5,101.3,89.8,91.7,79.3z M159,200.1
	c-0.8,0.4-1.7,0.8-2.6,1.2c-2,0.8-1.9,0.8-3.4-0.9c-11.1-12.8-17.3-27.6-19.4-44.3c-0.6-4.4-0.9-8.8-0.9-14.3
	c-0.4-10.7,2.5-21.8,6.3-32.8c0.4-1.2,1.1-1.6,2.2-1.8c2.4-0.5,4.6-1.2,6.9-1.9c9.7-3.4,17.9-9.2,24.9-16.6c0.3-0.4,0.7-0.8,1-1.1
	c1.5-1.7,1.6-1.7,3.1-0.1c8.6,8.5,14.7,18.6,18.1,30.2C204.6,150.3,189.4,184.9,159,200.1z"/>
</svg>
